<?xml version="1.0" encoding="UTF-8" standalone="no"?>
<!-- Created with Inkscape (http://www.inkscape.org/) -->

<svg
   xmlns:dc="http://purl.org/dc/elements/1.1/"
   xmlns:cc="http://creativecommons.org/ns#"
   xmlns:rdf="http://www.w3.org/1999/02/22-rdf-syntax-ns#"
   xmlns:svg="http://www.w3.org/2000/svg"
   xmlns="http://www.w3.org/2000/svg"
   xmlns:sodipodi="http://sodipodi.sourceforge.net/DTD/sodipodi-0.dtd"
   xmlns:inkscape="http://www.inkscape.org/namespaces/inkscape"
   width="235.30371mm"
   height="220.69339mm"
   viewBox="0 0 833.75331 781.98445"
   id="svg2"
   version="1.1"
   inkscape:version="0.91 r13725"
   sodipodi:docname="rawr dinosaur black and white.svg">
  <title
     id="title4219">Rawr Dinosaur</title>
  <defs
     id="defs4" />
  <sodipodi:namedview
     id="base"
     pagecolor="#ffffff"
     bordercolor="#666666"
     borderopacity="1.0"
     inkscape:pageopacity="0.0"
     inkscape:pageshadow="2"
     inkscape:zoom="0.49497475"
     inkscape:cx="679.89515"
     inkscape:cy="506.94119"
     inkscape:document-units="px"
     inkscape:current-layer="layer1"
     showgrid="false"
     inkscape:snap-global="false"
     inkscape:window-width="1920"
     inkscape:window-height="1018"
     inkscape:window-x="-8"
     inkscape:window-y="-8"
     inkscape:window-maximized="1"
     fit-margin-top="0"
     fit-margin-left="0"
     fit-margin-right="0"
     fit-margin-bottom="0" />
  <metadata
     id="metadata7">
    <rdf:RDF>
      <cc:Work
         rdf:about="">
        <dc:format>image/svg+xml</dc:format>
        <dc:type
           rdf:resource="http://purl.org/dc/dcmitype/StillImage" />
        <dc:title>Rawr Dinosaur</dc:title>
        <dc:creator>
          <cc:Agent>
            <dc:title>Tavin</dc:title>
          </cc:Agent>
        </dc:creator>
        <dc:source>tavinsorigami.com</dc:source>
        <dc:subject>
          <rdf:Bag>
            <rdf:li>dinsosaur</rdf:li>
            <rdf:li>green</rdf:li>
            <rdf:li>comic</rdf:li>
            <rdf:li>thick outline</rdf:li>
          </rdf:Bag>
        </dc:subject>
        <cc:license
           rdf:resource="http://creativecommons.org/publicdomain/zero/1.0/" />
      </cc:Work>
      <cc:License
         rdf:about="http://creativecommons.org/publicdomain/zero/1.0/">
        <cc:permits
           rdf:resource="http://creativecommons.org/ns#Reproduction" />
        <cc:permits
           rdf:resource="http://creativecommons.org/ns#Distribution" />
        <cc:permits
           rdf:resource="http://creativecommons.org/ns#DerivativeWorks" />
      </cc:License>
    </rdf:RDF>
  </metadata>
  <g
     inkscape:label="Layer 1"
     inkscape:groupmode="layer"
     id="layer1"
     transform="translate(-22.233081,-20.718446)">
    <path
       style="opacity:1;fill:#ffffff;fill-opacity:1;fill-rule:evenodd;stroke:#000000;stroke-width:11.89163685;stroke-linecap:butt;stroke-linejoin:round;stroke-miterlimit:4;stroke-dasharray:none;stroke-opacity:1"
       d="m 185.89468,758.65774 c -4.11201,-37.07937 12.09809,-134.26389 -26.9688,-118.11164 -23.47455,16.88789 -30.44772,58.45293 -22.08058,91.58905 -35.22103,3.89444 -48.895724,39.06581 -49.023791,33.75067 16.887281,0.21446 76.067581,-2.23259 98.073171,-7.22808 z"
       id="path4180-6-3"
       inkscape:connector-curvature="0"
       sodipodi:nodetypes="ccccc" />
    <path
       style="opacity:1;fill:#ffffff;fill-opacity:1;fill-rule:evenodd;stroke:#000000;stroke-width:8.13883877;stroke-linecap:butt;stroke-linejoin:round;stroke-miterlimit:4;stroke-dasharray:none;stroke-opacity:1"
       d="m 463.18651,180.99397 32.48836,60.99768 c 43.47421,-1.50301 34.41229,-79.34128 -32.48836,-60.99768 z"
       id="path4188"
       inkscape:connector-curvature="0"
       sodipodi:nodetypes="ccc" />
    <path
       style="opacity:1;fill:#ffffff;fill-opacity:1;fill-rule:evenodd;stroke:#000000;stroke-width:8.13883877;stroke-linecap:butt;stroke-linejoin:round;stroke-miterlimit:4;stroke-dasharray:none;stroke-opacity:1"
       d="m 497.98789,252.17445 14.76444,51.78123 c 37.13018,2.99296 44.69265,-65.69584 -14.76444,-51.78123 z"
       id="path4188-9"
       inkscape:connector-curvature="0"
       sodipodi:nodetypes="ccc" />
    <path
       style="opacity:1;fill:#ffffff;fill-opacity:1;fill-rule:evenodd;stroke:#000000;stroke-width:6.05450201;stroke-linecap:butt;stroke-linejoin:round;stroke-miterlimit:4;stroke-dasharray:none;stroke-opacity:1"
       d="m 517.14165,318.29688 9.80165,42.56477 c 37.13017,2.99296 49.65545,-56.47938 -9.80165,-42.56477 z"
       id="path4188-9-2"
       inkscape:connector-curvature="0"
       sodipodi:nodetypes="ccc" />
    <path
       style="opacity:1;fill:#ffffff;fill-opacity:1;fill-rule:evenodd;stroke:#000000;stroke-width:6.168;stroke-linecap:butt;stroke-linejoin:round;stroke-miterlimit:4;stroke-dasharray:none;stroke-opacity:1"
       d="m 422.83831,128.10679 36.74209,34.05727 c 45.10228,5.81072 -6.10571,-88.354288 -36.74209,-34.05727 z"
       id="path4188-8"
       inkscape:connector-curvature="0"
       sodipodi:nodetypes="ccc" />
    <path
       style="opacity:1;fill:#ffffff;fill-opacity:1;fill-rule:evenodd;stroke:#000000;stroke-width:8.43660164;stroke-linecap:butt;stroke-linejoin:round;stroke-miterlimit:4;stroke-dasharray:none;stroke-opacity:1"
       d="m 327.01063,101.7171 74.31693,13.49748 c 14.12168,2.10895 -7.81586,-32.285207 -19.24051,-35.044893 -7.00983,-1.693281 -30.58853,6.046131 -55.07642,21.547413 z"
       id="path4188-8-3"
       inkscape:connector-curvature="0"
       sodipodi:nodetypes="ccsc" />
    <path
       style="opacity:1;fill:#ffffff;fill-opacity:1;fill-rule:evenodd;stroke:#000000;stroke-width:9.32988739;stroke-linecap:butt;stroke-linejoin:round;stroke-miterlimit:4;stroke-dasharray:none;stroke-opacity:1"
       d="m 255.63381,112.76053 53.04816,-9.89815 c 14.12168,2.10895 -9.63292,-17.572691 -21.01289,-20.511251 -11.2588,-2.907272 -16.20007,12.435921 -32.03527,30.409401 z"
       id="path4188-8-3-2"
       inkscape:connector-curvature="0"
       sodipodi:nodetypes="ccsc" />
    <path
       style="opacity:1;fill:#ffffff;fill-opacity:1;fill-rule:evenodd;stroke:#000000;stroke-width:6.05450201;stroke-linecap:butt;stroke-linejoin:round;stroke-miterlimit:4;stroke-dasharray:none;stroke-opacity:1"
       d="m 548.43301,559.77096 -3.73365,41.06084 c 33.97866,5.93442 47.9721,-40.77141 3.73365,-41.06084 z"
       id="path4188-9-2-7"
       inkscape:connector-curvature="0"
       sodipodi:nodetypes="ccc" />
    <path
       style="opacity:1;fill:#ffffff;fill-opacity:1;fill-rule:evenodd;stroke:#000000;stroke-width:5.26046896;stroke-linecap:butt;stroke-linejoin:round;stroke-miterlimit:4;stroke-dasharray:none;stroke-opacity:1"
       d="m 554.11669,633.71018 51.9116,20.50717 c 16.9941,1.04612 -9.40691,-22.16289 -14.14391,-28.51319 -7.1729,-9.61562 -32.06256,-3.56325 -37.76769,8.00602 z"
       id="path4188-9-2-7-3"
       inkscape:connector-curvature="0"
       sodipodi:nodetypes="ccsc" />
    <path
       style="opacity:1;fill:#ffffff;fill-opacity:1;fill-rule:evenodd;stroke:#000000;stroke-width:4.36718225;stroke-linecap:butt;stroke-linejoin:round;stroke-miterlimit:4;stroke-dasharray:none;stroke-opacity:1"
       d="m 622.38378,652.22064 46.39725,18.00062 c -5.62503,-6.41127 -14.7441,-32.10796 -19.935,-31.9712 -5.64647,3.73133 -20.86501,8.81203 -26.46225,13.97058 z"
       id="path4188-9-2-7-3-8"
       inkscape:connector-curvature="0"
       sodipodi:nodetypes="cccc" />
    <path
       style="opacity:1;fill:#ffffff;fill-opacity:1;fill-rule:evenodd;stroke:#000000;stroke-width:4.36718225;stroke-linecap:butt;stroke-linejoin:round;stroke-miterlimit:4;stroke-dasharray:none;stroke-opacity:1"
       d="m 672.18733,670.88939 49.90646,10.98228 c -5.62503,-6.41126 -27.77816,-33.11057 -32.96914,-32.9738 -5.64637,3.73133 -11.34009,16.83297 -16.93732,21.99152 z"
       id="path4188-9-2-7-3-8-4"
       inkscape:connector-curvature="0"
       sodipodi:nodetypes="cccc" />
    <path
       style="opacity:1;fill:#ffffff;fill-opacity:1;fill-rule:evenodd;stroke:#000000;stroke-width:4.36718225;stroke-linecap:butt;stroke-linejoin:round;stroke-miterlimit:4;stroke-dasharray:none;stroke-opacity:1"
       d="m 742.84971,690.33975 46.39725,7.97443 c -9.56741,-24.27386 -25.15209,-34.6812 -46.39725,-7.97443 z"
       id="path4188-9-2-7-3-8-4-7"
       inkscape:connector-curvature="0"
       sodipodi:nodetypes="ccc" />
    <path
       style="opacity:1;fill:#000000;fill-rule:evenodd;stroke:#000000;stroke-width:0.99254131px;stroke-linecap:butt;stroke-linejoin:miter;stroke-opacity:1"
       d="m 396.78986,460.28887 c -19.93142,-23.82255 -43.08582,6.66403 -60.26135,-13.4702 2.41505,24.04634 -18.10068,23.09479 -26.23148,6.7351 l -15.59709,30.83968 c 44.58724,2.52236 69.32534,-14.80434 102.08992,-24.10458 z"
       id="path4540"
       inkscape:connector-curvature="0"
       sodipodi:nodetypes="ccccc" />
    <path
       style="opacity:1;fill:#ffffff;fill-opacity:1;fill-rule:evenodd;stroke:#000000;stroke-width:14.68961143;stroke-linecap:butt;stroke-linejoin:round;stroke-miterlimit:4;stroke-dasharray:none;stroke-opacity:1"
       d="m 130.43747,318.86414 c -6.32731,-49.81918 9.15017,-91.11235 33.96394,-123.92461 24.70694,-28.3771 54.67939,-57.80612 85.86941,-74.07844 76.93723,-39.596935 173.86356,-9.88249 227.47667,64.29308 42.69407,119.65544 81.58829,256.79349 17.14169,308.66684 30.4199,-10.00183 31.64826,-82.66444 86.72657,-105.27491 27.53111,33.14521 15.5957,88.78571 -54.14144,158.41367 15.26528,11.61041 28.26122,28.40773 25.06543,82.2147 l -13.03405,10.02617 33.08647,3.00786 231.60475,69.18065 C 709.86618,734.506 515.00113,793.59722 502.40886,724.42319 l 5.01313,18.54843 6.0157,15.03927 -118.81028,0.5013 c 9.45207,-18.40333 5.10951,-36.04715 27.57201,-37.09686 2.96105,-106.89751 39.87663,-79.53637 51.63488,-96.25134 0,0 -31.88054,-2.62473 -49.62965,52.13614 l -7.01836,37.09687 c -10.27677,9.6922 -22.45486,7.97662 -29.0759,39.60342 l -224.08521,5.01308 c 1.0077,-61.63947 16.57799,-75.44929 5.48543,-192.87094 -3.45844,-36.60969 -2.8365,-70.53068 -6.31187,-102.1439 -6.00352,-54.6101 -17.27128,-102.33371 -32.76127,-145.13452 z"
       id="path4180"
       inkscape:connector-curvature="0"
       sodipodi:nodetypes="cccccccccccccccccccccssc" />
    <path
       style="fill:#000000;fill-rule:evenodd;stroke:#000000;stroke-width:0.99254131px;stroke-linecap:butt;stroke-linejoin:miter;stroke-opacity:1"
       d="m 189.05707,342.77564 c 18.24703,45.56195 32.13287,91.11609 27.29494,143.9185 70.1815,7.83548 155.91285,2.20238 231.12039,-37.92927 9.07639,7.79726 13.4005,3.54529 16.53911,-4.15878 2.10736,-5.17263 4.06962,-12.4855 5.11953,-16.56591 14.06531,-55.22919 -8.14658,-129.22857 -29.45723,-155.45139 -221.91428,26.68744 -201.30427,39.76354 -249.1988,70.54132 z"
       id="path4178"
       inkscape:connector-curvature="0"
       sodipodi:nodetypes="cccscccc" />
    <path
       style="fill:#ffffff;fill-opacity:1;fill-rule:evenodd;stroke:none;stroke-width:13.79632378;stroke-linecap:butt;stroke-linejoin:miter;stroke-miterlimit:4;stroke-dasharray:none;stroke-opacity:1"
       d="m 454.56996,350.75486 -0.58729,67.81669 c -29.50775,44.56042 -82.47125,52.36747 -134.94532,58.65063 4.95913,-47.10356 -27.61786,-115.31634 135.53261,-126.46732 z"
       id="path4186"
       inkscape:connector-curvature="0"
       sodipodi:nodetypes="cccc" />
    <path
       style="fill:#ffffff;fill-rule:evenodd;stroke:#000000;stroke-width:2.84065318;stroke-linecap:butt;stroke-linejoin:miter;stroke-miterlimit:4;stroke-dasharray:none;stroke-opacity:1"
       d="m 202.09395,335.15514 c 43.99698,-20.55396 78.57622,-44.73618 171.5576,-50.06528 -6.86829,13.93957 -2.44136,28.38701 -9.22142,36.88411 -4.7886,-3.81414 -8.05943,-8.38718 -10.85423,-13.19825 -3.00532,-4.66811 -9.71172,-6.6557 -11.42653,-3.58209 -2.37386,4.25512 0.42938,15.28387 -3.51945,16.07341 -27.67236,-32.30469 -34.38164,-0.76038 -35.23423,17.621 -16.93632,-8.38424 -19.38641,-15.65416 -18.02395,-22.6308 0,0 -19.95226,-3.77605 -17.03538,22.5395 -6.49162,0.75026 -12.88259,1.14875 -16.5945,-7.82967 -13.56149,-17.3048 -31.48709,23.80778 -26.43942,40.89742 -22.84462,0.21522 -22.117,-23.7409 -23.20849,-36.70935 z"
       id="path4158"
       inkscape:connector-curvature="0"
       sodipodi:nodetypes="ccccsccccccc" />
    <path
       style="fill:#000000;fill-rule:evenodd;stroke:#000000;stroke-width:1.38955784;stroke-linecap:butt;stroke-linejoin:round;stroke-miterlimit:4;stroke-dasharray:none;stroke-opacity:1"
       d="m 169.33395,300.56898 c -2.93583,-20.73714 19.60153,-81.67011 58.52627,-26.89789 18.84032,24.35875 -23.81453,56.49122 -58.52627,26.89789 z"
       id="path4162"
       inkscape:connector-curvature="0"
       sodipodi:nodetypes="ccc" />
    <path
       style="fill:#ffffff;fill-rule:evenodd;stroke:#ffffff;stroke-width:1.58806622;stroke-linecap:butt;stroke-linejoin:round;stroke-miterlimit:4;stroke-dasharray:none;stroke-opacity:1"
       d="m 196.50117,282.86867 c 33.79247,0.87882 7.84615,-25.83876 0.87325,-14.36335 -1.22827,2.29947 -0.87325,6.82058 -0.87325,14.36335 z"
       id="path4166"
       inkscape:connector-curvature="0"
       sodipodi:nodetypes="ccc" />
    <path
       style="fill:#000000;fill-rule:evenodd;stroke:#000000;stroke-width:0.99254131px;stroke-linecap:butt;stroke-linejoin:miter;stroke-opacity:1"
       d="m 398.68304,175.4111 c -12.18454,-16.37865 -31.9111,-23.45791 -51.80848,-16.57852 -8.9684,3.18927 -16.1147,9.81486 -22.20037,18.71552 -6.91334,10.3507 -9.62685,22.85113 -8.34598,34.97384 3.68541,26.42368 23.61255,42.76879 48.72534,43.36084 18.16798,-1.51173 35.77665,-15.4681 40.01411,-43.01203 1.22916,-13.96412 -1.35542,-28.35901 -6.38462,-37.45965 z"
       id="path4170"
       inkscape:connector-curvature="0"
       sodipodi:nodetypes="ccccccc" />
    <path
       style="fill:#ffffff;fill-rule:evenodd;stroke:#ffffff;stroke-width:1.98508263;stroke-linecap:butt;stroke-linejoin:round;stroke-miterlimit:4;stroke-dasharray:none;stroke-opacity:1"
       d="m 360.27049,194.42614 c 17.6461,2.36535 20.64129,-20.20946 15.04812,-26.20478 -5.20409,-3.37539 -14.40147,-1.76913 -19.4813,3.53074 -6.76526,6.37679 -5.43318,13.83527 -1.94736,17.71135 5.98492,-1.6632 8.03938,-0.1251 6.38054,4.96269 z"
       id="path4172"
       inkscape:connector-curvature="0"
       sodipodi:nodetypes="ccccc" />
    <path
       style="fill:#ffffff;fill-rule:evenodd;stroke:#000000;stroke-width:3.4738946;stroke-linecap:butt;stroke-linejoin:miter;stroke-miterlimit:4;stroke-dasharray:none;stroke-opacity:1"
       d="M 405.57018,159.94916 C 383.88425,126.73385 341.40259,128.3394 328.36853,144.90989"
       id="path4182"
       inkscape:connector-curvature="0"
       sodipodi:nodetypes="cc" />
    <path
       style="fill:#ffffff;fill-opacity:1;fill-rule:evenodd;stroke:#000000;stroke-width:8.55372143;stroke-linecap:butt;stroke-linejoin:miter;stroke-miterlimit:4;stroke-dasharray:none;stroke-opacity:1"
       d="m 430.00833,273.43187 c 4.22316,36.64742 -2.68929,78.20788 -22.02389,89.39099 -13.66421,-30.89915 -21.87243,-61.49027 -52.79248,-75.14025 23.65118,-15.05109 49.16878,-15.17091 74.81637,-14.25074 z"
       id="path4160"
       inkscape:connector-curvature="0"
       sodipodi:nodetypes="cccc" />
    <path
       style="fill:#000000;fill-rule:evenodd;stroke:#000000;stroke-width:4.56569004;stroke-linecap:butt;stroke-linejoin:round;stroke-miterlimit:4;stroke-dasharray:none;stroke-opacity:1"
       d="m 180.54961,349.86521 c 71.02123,-59.83285 160.00584,-82.61637 261.25111,-80.11225 l -2.83589,4.9627 c -87.28666,4.18454 -173.00929,24.88576 -258.41522,75.14955 z"
       id="path4176"
       inkscape:connector-curvature="0"
       sodipodi:nodetypes="cccc" />
    <path
       style="fill:#000000;fill-rule:evenodd;stroke:none;stroke-width:1px;stroke-linecap:butt;stroke-linejoin:miter;stroke-opacity:1"
       d="m 440.66177,272.2424 c 34.31107,101.68092 32.7637,132.17426 19.85212,172.21443 -0.0566,-5.98046 -5.35873,1.62628 -5.37788,-4.28687 -0.18471,-56.82924 -5.71327,-111.73438 -23.49783,-162.91448 z"
       id="path4418"
       inkscape:connector-curvature="0"
       sodipodi:nodetypes="ccscc" />
    <path
       style="opacity:1;fill:#ffffff;fill-opacity:1;fill-rule:evenodd;stroke:#000000;stroke-width:3.22398019;stroke-linecap:butt;stroke-linejoin:round;stroke-miterlimit:4;stroke-dasharray:none;stroke-opacity:1"
       d="m 252.18563,488.83866 c -3.01257,-13.59613 -13.68874,-25.17719 -22.63709,-35.38144 1.59382,23.44263 -11.01433,21.92295 -14.61707,33.72593 z"
       id="path4160-8"
       inkscape:connector-curvature="0"
       sodipodi:nodetypes="cccc" />
    <path
       style="opacity:1;fill:#ffffff;fill-opacity:1;fill-rule:evenodd;stroke:#000000;stroke-width:2.54637337;stroke-linecap:butt;stroke-linejoin:round;stroke-miterlimit:4;stroke-dasharray:none;stroke-opacity:1"
       d="m 294.99354,484.81386 c -7.48119,-3.96398 -12.33699,-7.99185 -11.20858,-11.31294 0.89547,-2.63555 -0.4784,-4.98965 -2.47231,-7.31627 -9.1439,-15.38322 -15.34469,14.72279 -15.44504,23.00778 z"
       id="path4160-8-0"
       inkscape:connector-curvature="0"
       sodipodi:nodetypes="csccc" />
    <path
       style="opacity:1;fill:#ffffff;fill-opacity:1;fill-rule:evenodd;stroke:#000000;stroke-width:2.54637337;stroke-linecap:butt;stroke-linejoin:round;stroke-miterlimit:4;stroke-dasharray:none;stroke-opacity:1"
       d="m 328.7594,478.77559 c -6.93023,-5.7186 -11.26366,-13.12479 -16.51678,-19.33817 -16.41416,8.85114 -10.33227,16.80231 -10.1278,24.07123 z"
       id="path4160-8-0-3"
       inkscape:connector-curvature="0"
       sodipodi:nodetypes="cccc" />
    <path
       style="fill:#000000;fill-rule:evenodd;stroke:#000000;stroke-width:4.56569004;stroke-linecap:butt;stroke-linejoin:round;stroke-miterlimit:4;stroke-dasharray:none;stroke-opacity:1"
       d="m 215.26636,486.3305 c 89.27344,3.59864 149.16825,8.18833 235.60966,-37.22392 l -2.16135,-7.7374 C 371.89464,483.02446 314.35722,485.0589 215.26636,486.3305 Z"
       id="path4176-8"
       inkscape:connector-curvature="0"
       sodipodi:nodetypes="cccc" />
    <path
       style="opacity:1;fill:#ffffff;fill-opacity:1;fill-rule:evenodd;stroke:#000000;stroke-width:5.52448511;stroke-linecap:butt;stroke-linejoin:round;stroke-miterlimit:4;stroke-dasharray:none;stroke-opacity:1"
       d="m 445.85793,451.72343 c -12.07804,-67.44496 -35.59392,-56.69272 -35.28544,8.20659 6.63652,-4.87481 28.64891,-7.81051 35.28544,-8.20659 z"
       id="path4160-8-0-3-5-3"
       inkscape:connector-curvature="0"
       sodipodi:nodetypes="ccc" />
    <path
       style="fill:#000000;fill-rule:evenodd;stroke:#000000;stroke-width:0.99254131px;stroke-linecap:butt;stroke-linejoin:miter;stroke-opacity:1"
       d="m 419.83102,464.18815 c -32.00559,-18.64235 -37.46566,-2.10056 -77.2764,-19.14188 l -9.92541,41.11957 z"
       id="path4557"
       inkscape:connector-curvature="0"
       sodipodi:nodetypes="cccc" />
    <path
       style="opacity:1;fill:#ffffff;fill-opacity:1;fill-rule:evenodd;stroke:#000000;stroke-width:2.54637337;stroke-linecap:butt;stroke-linejoin:round;stroke-miterlimit:4;stroke-dasharray:none;stroke-opacity:1"
       d="m 358.99578,475.38997 c 1.2229,-8.90892 -8.78231,-12.06136 -14.03533,-18.27474 -16.41426,8.85113 -14.58609,13.612 -14.38163,20.88091 6.63652,-4.8748 21.78053,-2.21009 28.41696,-2.60617 z"
       id="path4160-8-0-3-5"
       inkscape:connector-curvature="0"
       sodipodi:nodetypes="cccc" />
    <path
       style="fill:#ffffff;fill-opacity:1;fill-rule:evenodd;stroke:#000000;stroke-width:8.76314735;stroke-linecap:butt;stroke-linejoin:round;stroke-miterlimit:4;stroke-dasharray:none;stroke-opacity:1"
       d="m 386.77721,744.66853 -10.52402,0.60137 -123.17576,7.03861 c -4.10735,-46.31047 -21.89617,-78.79296 -16.51292,-109.91462 13.4404,-77.7018 113.67417,-95.28515 147.53998,-22.09601 11.70206,25.28988 13.77339,61.37046 14.07275,101.45614 0.0466,6.26844 -17.82615,11.93169 -14.81885,21.78672 z"
       id="path4559"
       inkscape:connector-curvature="0"
       sodipodi:nodetypes="cccssscc" />
    <path
       style="fill:none;fill-rule:evenodd;stroke:#000000;stroke-width:4.56569004;stroke-linecap:butt;stroke-linejoin:round;stroke-miterlimit:4;stroke-dasharray:none;stroke-opacity:1"
       d="M 280.24288,616.14041 355.4392,601.10115"
       id="path4561"
       inkscape:connector-curvature="0" />
    <path
       style="fill:none;fill-rule:evenodd;stroke:#000000;stroke-width:4.56569004;stroke-linecap:butt;stroke-linejoin:round;stroke-miterlimit:4;stroke-dasharray:none;stroke-opacity:1"
       d="m 320.84894,714.89831 75.19631,-15.03928"
       id="path4561-9"
       inkscape:connector-curvature="0" />
    <path
       style="fill:none;fill-rule:evenodd;stroke:#000000;stroke-width:5.51654434;stroke-linecap:butt;stroke-linejoin:round;stroke-miterlimit:4;stroke-dasharray:none;stroke-opacity:1"
       d="M 248.54855,658.49789 379.1126,643.96624"
       id="path4561-6"
       inkscape:connector-curvature="0" />
    <path
       style="fill:none;fill-rule:evenodd;stroke:#000000;stroke-width:4.56569004;stroke-linecap:butt;stroke-linejoin:round;stroke-miterlimit:4;stroke-dasharray:none;stroke-opacity:1"
       d="m 314.31216,687.45056 76.23829,-8.26943"
       id="path4561-9-0"
       inkscape:connector-curvature="0" />
    <path
       style="fill:none;fill-rule:evenodd;stroke:#000000;stroke-width:4.56569004;stroke-linecap:butt;stroke-linejoin:round;stroke-miterlimit:4;stroke-dasharray:none;stroke-opacity:1"
       d="M 275.73108,740.96639 350.9274,725.92711"
       id="path4561-9-4"
       inkscape:connector-curvature="0" />
    <path
       style="opacity:1;fill:#ffffff;fill-opacity:1;fill-rule:evenodd;stroke:#000000;stroke-width:11.89163685;stroke-linecap:butt;stroke-linejoin:round;stroke-miterlimit:4;stroke-dasharray:none;stroke-opacity:1"
       d="m 167.44735,531.8538 -2.58736,-13.77144 c -0.72447,-51.80709 -7.00299,30.1882 -1.40146,-64.74514 2.66262,-45.12545 -39.44469,-73.48846 -88.413421,-66.22802 -7.947586,68.75742 103.916291,105.37801 92.402241,144.7446 z"
       id="path4180-6"
       inkscape:connector-curvature="0"
       sodipodi:nodetypes="ccscc" />
    <flowRoot
       xml:space="preserve"
       id="flowRoot4707"
       style="font-style:normal;font-weight:normal;font-size:40px;line-height:125%;font-family:sans-serif;letter-spacing:0px;word-spacing:0px;fill:#000000;fill-opacity:1;stroke:none;stroke-width:1px;stroke-linecap:butt;stroke-linejoin:miter;stroke-opacity:1"><flowRegion
         id="flowRegion4709"><rect
           id="rect4711"
           width="3014.2952"
           height="1814.234"
           x="-3260.7725"
           y="-963.90228" /></flowRegion><flowPara
         id="flowPara4713" /></flowRoot>  </g>
</svg>
